<mxfile host="app.diagrams.net" agent="Mozilla/5.0 (Macintosh; Intel Mac OS X 10_15_7) AppleWebKit/537.36 (KHTML, like Gecko) Chrome/131.0.0.0 Safari/537.36" version="25.0.3">
  <diagram name="Page-1" id="rbYulgOYd_JtCv1iwfxA">
    <mxGraphModel dx="1876" dy="1707" grid="1" gridSize="10" guides="1" tooltips="1" connect="1" arrows="1" fold="1" page="1" pageScale="1" pageWidth="850" pageHeight="1100" math="0" shadow="0">
      <root>
        <mxCell id="0" />
        <mxCell id="1" parent="0" />
        <mxCell id="vfSpy1Vpbdd8VhSQ0_jY-2" value="Client Store" style="shape=cylinder3;whiteSpace=wrap;html=1;boundedLbl=1;backgroundOutline=1;size=15;" vertex="1" parent="1">
          <mxGeometry x="440" y="110" width="60" height="80" as="geometry" />
        </mxCell>
        <mxCell id="vfSpy1Vpbdd8VhSQ0_jY-3" value="App Root" style="whiteSpace=wrap;html=1;aspect=fixed;fillColor=#dae8fc;strokeColor=#6c8ebf;" vertex="1" parent="1">
          <mxGeometry x="240" y="210" width="80" height="80" as="geometry" />
        </mxCell>
        <mxCell id="vfSpy1Vpbdd8VhSQ0_jY-5" value="Calendar Controls" style="rounded=1;whiteSpace=wrap;html=1;" vertex="1" parent="1">
          <mxGeometry x="40" y="350" width="170" height="60" as="geometry" />
        </mxCell>
        <mxCell id="vfSpy1Vpbdd8VhSQ0_jY-7" value="" style="endArrow=classic;html=1;rounded=0;exitX=0.5;exitY=0;exitDx=0;exitDy=0;entryX=0;entryY=0.5;entryDx=0;entryDy=0;entryPerimeter=0;" edge="1" parent="1" source="vfSpy1Vpbdd8VhSQ0_jY-3" target="vfSpy1Vpbdd8VhSQ0_jY-2">
          <mxGeometry width="50" height="50" relative="1" as="geometry">
            <mxPoint x="400" y="340" as="sourcePoint" />
            <mxPoint x="450" y="290" as="targetPoint" />
            <Array as="points">
              <mxPoint x="280" y="150" />
            </Array>
          </mxGeometry>
        </mxCell>
        <mxCell id="vfSpy1Vpbdd8VhSQ0_jY-9" value="" style="endArrow=classic;html=1;rounded=0;exitX=0.5;exitY=1;exitDx=0;exitDy=0;entryX=0.435;entryY=0.05;entryDx=0;entryDy=0;entryPerimeter=0;" edge="1" parent="1" source="vfSpy1Vpbdd8VhSQ0_jY-3" target="vfSpy1Vpbdd8VhSQ0_jY-5">
          <mxGeometry width="50" height="50" relative="1" as="geometry">
            <mxPoint x="170" y="340" as="sourcePoint" />
            <mxPoint x="220" y="290" as="targetPoint" />
          </mxGeometry>
        </mxCell>
        <mxCell id="vfSpy1Vpbdd8VhSQ0_jY-10" value="View Switcher" style="rounded=1;whiteSpace=wrap;html=1;" vertex="1" parent="1">
          <mxGeometry x="-80" y="490" width="170" height="60" as="geometry" />
        </mxCell>
        <mxCell id="vfSpy1Vpbdd8VhSQ0_jY-11" value="Create Event, Remainders,&amp;nbsp;&lt;br&gt;Contig buttons" style="rounded=1;whiteSpace=wrap;html=1;" vertex="1" parent="1">
          <mxGeometry x="130" y="490" width="170" height="60" as="geometry" />
        </mxCell>
        <mxCell id="vfSpy1Vpbdd8VhSQ0_jY-12" value="" style="endArrow=classic;html=1;rounded=0;exitX=0.5;exitY=1;exitDx=0;exitDy=0;entryX=0.5;entryY=0;entryDx=0;entryDy=0;" edge="1" parent="1" source="vfSpy1Vpbdd8VhSQ0_jY-5" target="vfSpy1Vpbdd8VhSQ0_jY-10">
          <mxGeometry width="50" height="50" relative="1" as="geometry">
            <mxPoint x="220" y="427" as="sourcePoint" />
            <mxPoint x="221" y="490" as="targetPoint" />
          </mxGeometry>
        </mxCell>
        <mxCell id="vfSpy1Vpbdd8VhSQ0_jY-13" value="" style="endArrow=classic;html=1;rounded=0;exitX=0.5;exitY=1;exitDx=0;exitDy=0;entryX=0.5;entryY=0;entryDx=0;entryDy=0;" edge="1" parent="1" source="vfSpy1Vpbdd8VhSQ0_jY-5" target="vfSpy1Vpbdd8VhSQ0_jY-11">
          <mxGeometry width="50" height="50" relative="1" as="geometry">
            <mxPoint x="400" y="427" as="sourcePoint" />
            <mxPoint x="401" y="490" as="targetPoint" />
          </mxGeometry>
        </mxCell>
        <mxCell id="vfSpy1Vpbdd8VhSQ0_jY-15" value="Calendar View" style="rounded=1;whiteSpace=wrap;html=1;" vertex="1" parent="1">
          <mxGeometry x="450" y="340" width="170" height="60" as="geometry" />
        </mxCell>
        <mxCell id="vfSpy1Vpbdd8VhSQ0_jY-31" value="" style="edgeStyle=orthogonalEdgeStyle;rounded=0;orthogonalLoop=1;jettySize=auto;html=1;" edge="1" parent="1" source="vfSpy1Vpbdd8VhSQ0_jY-16" target="vfSpy1Vpbdd8VhSQ0_jY-30">
          <mxGeometry relative="1" as="geometry" />
        </mxCell>
        <mxCell id="vfSpy1Vpbdd8VhSQ0_jY-16" value="Year View" style="rounded=1;whiteSpace=wrap;html=1;" vertex="1" parent="1">
          <mxGeometry x="330" y="480" width="170" height="60" as="geometry" />
        </mxCell>
        <mxCell id="vfSpy1Vpbdd8VhSQ0_jY-25" value="" style="edgeStyle=orthogonalEdgeStyle;rounded=0;orthogonalLoop=1;jettySize=auto;html=1;" edge="1" parent="1" source="vfSpy1Vpbdd8VhSQ0_jY-17">
          <mxGeometry relative="1" as="geometry">
            <mxPoint x="625" y="620" as="targetPoint" />
          </mxGeometry>
        </mxCell>
        <mxCell id="vfSpy1Vpbdd8VhSQ0_jY-27" value="" style="edgeStyle=orthogonalEdgeStyle;rounded=0;orthogonalLoop=1;jettySize=auto;html=1;" edge="1" parent="1" source="vfSpy1Vpbdd8VhSQ0_jY-17" target="vfSpy1Vpbdd8VhSQ0_jY-26">
          <mxGeometry relative="1" as="geometry" />
        </mxCell>
        <mxCell id="vfSpy1Vpbdd8VhSQ0_jY-17" value="Month View" style="rounded=1;whiteSpace=wrap;html=1;" vertex="1" parent="1">
          <mxGeometry x="540" y="480" width="170" height="60" as="geometry" />
        </mxCell>
        <mxCell id="vfSpy1Vpbdd8VhSQ0_jY-18" value="" style="endArrow=classic;html=1;rounded=0;exitX=0.5;exitY=1;exitDx=0;exitDy=0;entryX=0.5;entryY=0;entryDx=0;entryDy=0;" edge="1" parent="1" source="vfSpy1Vpbdd8VhSQ0_jY-15" target="vfSpy1Vpbdd8VhSQ0_jY-16">
          <mxGeometry width="50" height="50" relative="1" as="geometry">
            <mxPoint x="630" y="417" as="sourcePoint" />
            <mxPoint x="631" y="480" as="targetPoint" />
          </mxGeometry>
        </mxCell>
        <mxCell id="vfSpy1Vpbdd8VhSQ0_jY-19" value="" style="endArrow=classic;html=1;rounded=0;exitX=0.5;exitY=1;exitDx=0;exitDy=0;entryX=0.5;entryY=0;entryDx=0;entryDy=0;" edge="1" parent="1" source="vfSpy1Vpbdd8VhSQ0_jY-15" target="vfSpy1Vpbdd8VhSQ0_jY-17">
          <mxGeometry width="50" height="50" relative="1" as="geometry">
            <mxPoint x="810" y="417" as="sourcePoint" />
            <mxPoint x="811" y="480" as="targetPoint" />
          </mxGeometry>
        </mxCell>
        <mxCell id="vfSpy1Vpbdd8VhSQ0_jY-20" value="" style="endArrow=classic;html=1;rounded=0;exitX=0.5;exitY=1;exitDx=0;exitDy=0;entryX=0.25;entryY=0;entryDx=0;entryDy=0;" edge="1" parent="1" source="vfSpy1Vpbdd8VhSQ0_jY-3" target="vfSpy1Vpbdd8VhSQ0_jY-15">
          <mxGeometry width="50" height="50" relative="1" as="geometry">
            <mxPoint x="290" y="300" as="sourcePoint" />
            <mxPoint x="124" y="363" as="targetPoint" />
          </mxGeometry>
        </mxCell>
        <mxCell id="vfSpy1Vpbdd8VhSQ0_jY-26" value="&lt;div&gt;Days cells&lt;/div&gt;" style="whiteSpace=wrap;html=1;rounded=1;" vertex="1" parent="1">
          <mxGeometry x="565" y="620" width="120" height="60" as="geometry" />
        </mxCell>
        <mxCell id="vfSpy1Vpbdd8VhSQ0_jY-33" value="" style="edgeStyle=orthogonalEdgeStyle;rounded=0;orthogonalLoop=1;jettySize=auto;html=1;entryX=1;entryY=0.5;entryDx=0;entryDy=0;" edge="1" parent="1" target="vfSpy1Vpbdd8VhSQ0_jY-32">
          <mxGeometry relative="1" as="geometry">
            <mxPoint x="850" y="590" as="sourcePoint" />
            <mxPoint x="760" y="890" as="targetPoint" />
          </mxGeometry>
        </mxCell>
        <mxCell id="vfSpy1Vpbdd8VhSQ0_jY-28" value="Day View" style="rounded=1;whiteSpace=wrap;html=1;" vertex="1" parent="1">
          <mxGeometry x="740" y="480" width="170" height="60" as="geometry" />
        </mxCell>
        <mxCell id="vfSpy1Vpbdd8VhSQ0_jY-29" value="" style="endArrow=classic;html=1;rounded=0;exitX=0.5;exitY=1;exitDx=0;exitDy=0;entryX=0.5;entryY=0;entryDx=0;entryDy=0;" edge="1" parent="1" target="vfSpy1Vpbdd8VhSQ0_jY-28">
          <mxGeometry width="50" height="50" relative="1" as="geometry">
            <mxPoint x="570" y="400" as="sourcePoint" />
            <mxPoint x="660" y="480" as="targetPoint" />
          </mxGeometry>
        </mxCell>
        <mxCell id="vfSpy1Vpbdd8VhSQ0_jY-30" value="Month cells" style="rounded=1;whiteSpace=wrap;html=1;" vertex="1" parent="1">
          <mxGeometry x="355" y="620" width="120" height="60" as="geometry" />
        </mxCell>
        <mxCell id="vfSpy1Vpbdd8VhSQ0_jY-32" value="Event View" style="rounded=1;whiteSpace=wrap;html=1;" vertex="1" parent="1">
          <mxGeometry x="360" y="810" width="350" height="60" as="geometry" />
        </mxCell>
        <mxCell id="vfSpy1Vpbdd8VhSQ0_jY-34" value="" style="edgeStyle=orthogonalEdgeStyle;rounded=0;orthogonalLoop=1;jettySize=auto;html=1;entryX=0.75;entryY=0;entryDx=0;entryDy=0;" edge="1" parent="1" target="vfSpy1Vpbdd8VhSQ0_jY-32">
          <mxGeometry relative="1" as="geometry">
            <mxPoint x="624.5" y="680" as="sourcePoint" />
            <mxPoint x="624.5" y="760" as="targetPoint" />
          </mxGeometry>
        </mxCell>
        <mxCell id="vfSpy1Vpbdd8VhSQ0_jY-35" value="" style="edgeStyle=orthogonalEdgeStyle;rounded=0;orthogonalLoop=1;jettySize=auto;html=1;" edge="1" parent="1">
          <mxGeometry relative="1" as="geometry">
            <mxPoint x="414.5" y="690" as="sourcePoint" />
            <mxPoint x="410" y="800" as="targetPoint" />
          </mxGeometry>
        </mxCell>
        <mxCell id="vfSpy1Vpbdd8VhSQ0_jY-36" value="&lt;div style=&quot;text-align: left;&quot;&gt;&lt;b style=&quot;background-color: initial;&quot;&gt;&lt;font style=&quot;font-size: 16px;&quot;&gt;Functional Requirements&lt;/font&gt;&lt;/b&gt;&lt;/div&gt;&lt;div style=&quot;text-align: left;&quot;&gt;&lt;br&gt;&lt;/div&gt;&lt;div style=&quot;text-align: left;&quot;&gt;1. Different Calendar View ( Year View, Month View, Day View)&lt;/div&gt;&lt;div style=&quot;text-align: left;&quot;&gt;2. Ability to add Events, Invite people, Set Remainders&lt;/div&gt;&lt;div style=&quot;text-align: left;&quot;&gt;3. Import/Export Events, Sync Calendars&lt;/div&gt;&lt;div style=&quot;text-align: left;&quot;&gt;4. Work offline&lt;/div&gt;&lt;div style=&quot;text-align: left;&quot;&gt;&lt;br&gt;&lt;/div&gt;" style="text;html=1;align=center;verticalAlign=middle;resizable=0;points=[];autosize=1;strokeColor=none;fillColor=none;" vertex="1" parent="1">
          <mxGeometry x="-70" y="-420" width="360" height="120" as="geometry" />
        </mxCell>
        <mxCell id="vfSpy1Vpbdd8VhSQ0_jY-39" value="&lt;div style=&quot;text-align: left;&quot;&gt;&lt;span style=&quot;font-size: 16px;&quot;&gt;&lt;b&gt;Non Functional Requirements&lt;/b&gt;&lt;/span&gt;&lt;/div&gt;&lt;div style=&quot;text-align: left;&quot;&gt;&lt;br&gt;&lt;/div&gt;&lt;div style=&quot;text-align: left;&quot;&gt;1. Should support mobile view.&lt;/div&gt;&lt;div style=&quot;text-align: left;&quot;&gt;2. Work offline ( should be able to view events offlline)&lt;/div&gt;&lt;div style=&quot;text-align: left;&quot;&gt;3. Accessiblity support&lt;/div&gt;&lt;div style=&quot;text-align: left;&quot;&gt;4. Highly performant, efficiant rendering, when switching views it should be fast, seamless transition between one view over other&lt;/div&gt;&lt;div style=&quot;text-align: left;&quot;&gt;5. Integrate native mobile features&lt;/div&gt;&lt;div style=&quot;text-align: left;&quot;&gt;6. Multiple language support&lt;/div&gt;" style="text;html=1;align=center;verticalAlign=middle;resizable=0;points=[];autosize=1;strokeColor=none;fillColor=none;" vertex="1" parent="1">
          <mxGeometry x="-64" y="-297" width="710" height="130" as="geometry" />
        </mxCell>
        <mxCell id="vfSpy1Vpbdd8VhSQ0_jY-40" value="&lt;div style=&quot;text-align: left;&quot;&gt;&lt;span style=&quot;font-size: 16px;&quot;&gt;&lt;b&gt;Action plan&lt;/b&gt;&lt;/span&gt;&lt;/div&gt;&lt;div style=&quot;text-align: left;&quot;&gt;1. Layout view&lt;/div&gt;&lt;div style=&quot;text-align: left;&quot;&gt;2. Efficient loading of the components (SSR vs CSR)&lt;/div&gt;&lt;div style=&quot;text-align: left;&quot;&gt;3. Module bundling&lt;/div&gt;&lt;div style=&quot;text-align: left;&quot;&gt;&lt;br&gt;&lt;/div&gt;" style="text;html=1;align=center;verticalAlign=middle;resizable=0;points=[];autosize=1;strokeColor=none;fillColor=none;" vertex="1" parent="1">
          <mxGeometry x="-60" y="-140" width="300" height="90" as="geometry" />
        </mxCell>
        <mxCell id="vfSpy1Vpbdd8VhSQ0_jY-41" value="Data Model&#xa;&#xa;type CalendarStore = {&#xa;    events: Map&lt;id, Event&gt;&#xa;    config: CalendarState&#xa;}&#xa;&#xa;type Event = {&#xa;    id : number,&#xa;    description: string,&#xa;    startTime: date,&#xa;    endTime: date&#xa;    attendees: UserDetails[]&#xa;}&#xa;&#xa;type CalendarState = {&#xa;    view:  &#39;Year&#39; | &#39;Month&#39; | &#39;Day&#39;&#xa;    &#xa;&#xa;}&#xa;&#xa;" style="text;whiteSpace=wrap;fillColor=#dae8fc;strokeColor=#6c8ebf;" vertex="1" parent="1">
          <mxGeometry x="-110" y="950" width="440" height="340" as="geometry" />
        </mxCell>
      </root>
    </mxGraphModel>
  </diagram>
</mxfile>
